<?xml version="1.0" encoding="utf-8"?>
<!-- Generator: Adobe Illustrator 19.2.1, SVG Export Plug-In . SVG Version: 6.00 Build 0)  -->
<svg version="1.1" id="Layer_1" xmlns="http://www.w3.org/2000/svg" xmlns:xlink="http://www.w3.org/1999/xlink" x="0px" y="0px"
	 viewBox="0 0 150 46.2" style="enable-background:new 0 0 150 46.2;" xml:space="preserve">
<style type="text/css">
	.st0{fill-rule:evenodd;clip-rule:evenodd;}
</style>
<g>
	<g>
		<path class="st0" d="M27.6,3.9c-0.2-0.1-0.4-0.1-0.6-0.2c0,0,0,0,0,0c-0.1,0-0.2,0-0.2-0.1c-1.1-0.3-2.4-0.5-3.6-0.6
			c-0.1,0-0.2,0-0.4,0c-0.1,0-0.2,0-0.4,0c-0.5,0-1.1,0-1.6,0c-4.1,0.2-8.2,1.5-11.2,4.1c-0.9,8.7,4,18.3,6.4,21.4
			C19.3,18.7,23.8,9.7,27.6,3.9z"/>
		<path class="st0" d="M30.7,10.7c-0.2-0.1-7.2,10.9-13.1,26.2C12.5,32.5,7.2,22.3,6.9,14.7c-2.2,2.9-3.5,6.5-3.5,10.5
			c0,9.6,7.9,17.5,17.5,17.5c9.6,0,17.5-7.9,17.5-17.5C38.4,19.2,35.3,13.8,30.7,10.7z"/>
	</g>
	<g>
		<path d="M52.3,35.7H49l-5.3-14h3.8l3.2,9.9h0.1l3.2-9.9h3.7L52.3,35.7z"/>
		<path d="M58.7,35.7v-14h3.4v14H58.7z"/>
		<path d="M72.2,25.4c-0.6-0.7-1.6-1.2-2.5-1.2c-0.9,0-2,0.3-2,1.4c0,0.9,0.8,1.2,2.2,1.6c1.9,0.6,4.4,1.4,4.4,4.2
			c0,3.2-2.6,4.7-5.4,4.7c-2,0-4-0.7-5.2-2l2.2-2.3c0.7,0.9,1.9,1.5,3,1.5c1,0,1.9-0.4,1.9-1.5c0-1.1-1.1-1.4-2.9-2
			c-1.8-0.6-3.6-1.5-3.6-4c0-3.1,2.8-4.4,5.4-4.4c1.6,0,3.4,0.6,4.6,1.7L72.2,25.4z"/>
		<path d="M85.8,35.7L84.7,33h-5.4l-1,2.8h-3.7l5.9-14h3.3l5.8,14H85.8z M82,25.5l-1.8,4.8h3.5L82,25.5z"/>
		<path d="M96.1,35.7h-5.6v-14h5.6c2.2,0,4.8,0.8,4.8,3.6c0,1.5-0.9,2.6-2.3,3v0c1.6,0.3,2.9,1.4,2.9,3.3
			C101.4,34.7,98.8,35.7,96.1,35.7z M95.5,24.4h-1.7v2.9h1.8c1.3,0,2-0.5,2-1.5C97.6,24.8,96.9,24.4,95.5,24.4z M95.7,29.8h-1.9V33
			h1.9c1.1,0,2.4-0.3,2.4-1.7C98.1,30.2,97.1,29.8,95.7,29.8z"/>
		<path d="M103.3,35.7v-14h9.4v2.9h-6.2v2.6h5.8v2.7h-5.8v2.9h6.5v2.9H103.3z"/>
		<path d="M115.1,35.7v-14h3.4v14H115.1z"/>
		<path d="M128.5,35.7l-3-5.6h-1.1v5.6H121v-14h5.3c2.7,0,5.4,1,5.4,4.2c0,1.9-1.1,3.2-2.9,3.8l3.7,6H128.5z M126.1,24.5h-1.8v3.3
			h1.6c1.1,0,2.5-0.3,2.5-1.7C128.3,24.7,127.1,24.5,126.1,24.5z"/>
		<path d="M143.4,35.7l-1.1-2.8h-5.4l-1,2.8h-3.7l5.9-14h3.3l5.8,14H143.4z M139.6,25.5l-1.8,4.8h3.5L139.6,25.5z"/>
	</g>
	<g>
		<path d="M48.6,18.4c-2.7,0-4.6-1.8-4.6-4.5c0-2.7,2-4.4,4.6-4.4c1.3,0,2.6,0.4,3.3,1.1l-1.3,1.5c-0.4-0.5-1.1-0.8-1.9-0.8
			c-1.4,0-2.5,1.1-2.5,2.6c0,1.6,0.9,2.7,2.6,2.7c0.5,0,0.9-0.1,1.3-0.2v-1.5h-1.6v-1.6h3.5v4.5C51,18.1,49.9,18.4,48.6,18.4z"/>
		<path d="M58,18.2l-1.8-3.4h-0.7v3.4h-2V9.7h3.2c1.6,0,3.2,0.6,3.2,2.6c0,1.1-0.7,1.9-1.8,2.3l2.2,3.6H58z M56.6,11.4h-1.1v2h1
			c0.7,0,1.5-0.2,1.5-1C57.9,11.5,57.2,11.4,56.6,11.4z"/>
		<path d="M64.9,18.4c-2.2,0-3.6-1.4-3.6-3.4V9.7h2v5.1c0,0.9,0.4,1.7,1.6,1.7c1.2,0,1.6-0.8,1.6-1.7V9.7h2V15
			C68.6,17,67.1,18.4,64.9,18.4z"/>
		<path d="M73.3,15h-1v3.2h-2V9.7h3.1c1.9,0,3.3,0.7,3.3,2.6C76.6,14.3,75.1,15,73.3,15z M73.2,11.4h-0.9v2h0.9c0.8,0,1.5-0.2,1.5-1
			C74.6,11.5,73.9,11.4,73.2,11.4z"/>
		<path d="M82.1,18.4c-2.6,0-4.6-1.8-4.6-4.5c0-2.7,2-4.4,4.6-4.4c2.7,0,4.6,1.7,4.6,4.4C86.7,16.6,84.7,18.4,82.1,18.4z M82.1,11.3
			c-1.4,0-2.4,1.1-2.4,2.6c0,1.5,1,2.6,2.4,2.6c1.4,0,2.4-1.1,2.4-2.6C84.5,12.4,83.5,11.3,82.1,11.3z"/>
	</g>
</g>
</svg>
